<?xml version="1.0" standalone="no"?><!DOCTYPE svg PUBLIC "-//W3C//DTD SVG 1.1//EN" "http://www.w3.org/Graphics/SVG/1.1/DTD/svg11.dtd"><svg t="1629768431257" class="icon" viewBox="0 0 1024 1024" version="1.1" xmlns="http://www.w3.org/2000/svg" p-id="7566" xmlns:xlink="http://www.w3.org/1999/xlink" width="200" height="200"><defs><style type="text/css"></style></defs><path d="M512 949.138286c238.72 0 437.138286-197.997714 437.138286-437.138286 0-238.72-198.857143-437.138286-437.577143-437.138286C272.438857 74.861714 74.88 273.28 74.88 512c0 239.140571 197.997714 437.138286 437.138286 437.138286z m0-72.850286C309.705143 876.288 148.114286 714.276571 148.114286 512c0-201.874286 161.152-364.288 363.446857-364.288 201.856 0 364.269714 162.432 364.708571 364.288 0.420571 202.294857-162.432 364.288-364.288 364.288z m-162.011429-410.148571H672.731429c21.851429 0 36.864-10.715429 36.864-32.146286 0-21.851429-14.153143-33.426286-36.864-33.426286H349.988571c-23.131429 0-37.284571 11.574857-37.284571 33.426286 0 21.430857 14.994286 32.146286 37.302857 32.146286z m0 158.573714H672.731429c21.851429 0 36.864-10.715429 36.864-32.146286 0-22.272-14.153143-33.426286-36.864-33.426286H349.988571c-23.131429 0-37.284571 11.154286-37.284571 33.426286 0 21.430857 14.994286 32.146286 37.302857 32.146286z" p-id="7567"></path></svg>